<svg version="1.2" xmlns="http://www.w3.org/2000/svg" viewBox="0 0 87 25" width="87" height="25"><defs><clipPath clipPathUnits="userSpaceOnUse" id="cp1"><path d="m0.5 1h20.25v23.14h-20.25z"/></clipPath></defs><style>.a{fill:#fff}</style><g clip-path="url(#cp1)"><path class="a" d="m16.4 8.2v-1.4c0-3.2-2.6-5.8-5.8-5.8-3.2 0-5.8 2.6-5.8 5.8v1.4h-4.3v12.3c0 2 1.6 3.6 3.6 3.6h13c2 0 3.7-1.6 3.7-3.6v-12.3zm-8.7-1.4c0-1.6 1.3-2.9 2.9-2.9 1.6 0 2.9 1.3 2.9 2.9v1.4h-5.8zm7.2 5.5c-0.6 0-1.1-0.5-1.1-1.1 0-0.6 0.5-1.1 1.1-1.1 0.6 0 1.1 0.5 1.1 1.1 0 0.6-0.5 1.1-1.1 1.1zm-8.7 0c-0.6 0-1.1-0.5-1.1-1.1 0-0.6 0.5-1.1 1.1-1.1 0.6 0 1.1 0.5 1.1 1.1 0 0.6-0.5 1.1-1.1 1.1z"/></g></svg>