<svg version="1.2" xmlns="http://www.w3.org/2000/svg" viewBox="0 0 229 35" width="229" height="35"><defs><clipPath clipPathUnits="userSpaceOnUse" id="cp1"><path d="m0 0h27.75v31.71h-27.75z"/></clipPath></defs><style>.a{fill:#10b981}</style><g clip-path="url(#cp1)"><path class="a" d="m21.8 9.9v-2c0-4.3-3.6-7.9-7.9-7.9-4.4 0-8 3.6-8 7.9v2h-5.9v16.9c0 2.7 2.2 4.9 5 4.9h17.8c2.7 0 5-2.2 5-4.9v-16.9zm-11.9-2c0-2.2 1.7-3.9 3.9-3.9 2.2 0 4 1.7 4 3.9v2h-7.9zm9.9 7.4c-0.9 0-1.5-0.6-1.5-1.4 0-0.9 0.6-1.5 1.5-1.5 0.8 0 1.5 0.6 1.5 1.5 0 0.8-0.7 1.4-1.5 1.4zm-11.9 0c-0.8 0-1.5-0.6-1.5-1.4 0-0.9 0.7-1.5 1.5-1.5 0.8 0 1.5 0.6 1.5 1.5 0 0.8-0.7 1.4-1.5 1.4z"/></g></svg>