<svg version="1.2" xmlns="http://www.w3.org/2000/svg" viewBox="0 0 863 645" width="863" height="645"><style>.a{fill:#9e616a}.b{fill:#2f2e41}.c{fill:#ffb6b6}.d{fill:#e6e6e6}.e{fill:#fff}.f{fill:#ffb8b8}.g{fill:#ccc}.h{fill:#1ba85c}.i{fill:#3f3d56}.j{fill:#f2f2f2}</style><path fill-rule="evenodd" class="a" d="m629.9 612.6h-17.1l-8.2-66.2h25.3v66.2z"/><path class="b" d="m639 642.4h-12.3l-2.2-11.6-5.6 11.6h-32.7c-1.5 0-3.1-0.5-4.3-1.4-1.3-1-2.2-2.3-2.7-3.8-0.5-1.5-0.4-3.1 0.1-4.5 0.5-1.5 1.5-2.8 2.7-3.7l26.1-18v-11.7l27.4 1.6z"/><path fill-rule="evenodd" class="a" d="m731.9 591l-13.8 10.2-46-48.2 20.3-15.1 39.5 53.1z"/><path class="b" d="m756.9 609.4l-9.8 7.4-8.7-8 2.4 12.7-26.2 19.4c-1.3 1-2.8 1.5-4.4 1.5-1.5 0-3.1-0.5-4.3-1.4-1.3-0.9-2.2-2.2-2.7-3.7-0.5-1.5-0.4-3.1 0.1-4.6l10.1-30-7-9.4 23-15.1z"/><path class="b" d="m649.9 271c0 0 32.6 28.2 17.6 108.4l-18.4 78.6 59.9 99.2-19.1 23.3-77.8-107.5-28.2-66.1-7.9-117.7z"/><path fill-rule="evenodd" class="b" d="m599.4 425.7l-1.9 30.4 6 129.3 28.2-4.9 5.4-92.1-37.7-62.7z"/><path fill-rule="evenodd" class="c" d="m237.4 628.2h15.4l7.3-59.2h-22.7v59.2z"/><path class="b" d="m233.5 623.2h4.4l16.8-6.9 9.1 6.9c2.5 0 5 0.5 7.3 1.5 2.4 0.9 4.5 2.4 6.3 4.1 1.8 1.8 3.2 4 4.2 6.3 0.9 2.3 1.4 4.8 1.4 7.4v0.6h-49.5z"/><path fill-rule="evenodd" class="c" d="m296.9 618.5l15 3.4 20.2-56.1-22.1-5-13.1 57.7z"/><path class="b" d="m294.2 612.8l4.2 0.9 18-2.9 7.3 8.6c2.5 0.6 4.8 1.6 6.9 3.1 2 1.5 3.8 3.3 5.2 5.4 1.3 2.2 2.2 4.6 2.6 7.1 0.5 2.5 0.4 5-0.1 7.5l-0.2 0.6-48.3-10.9z"/><path class="b" d="m218 266.2c-7.2 21.7-6.4 45.3 1.7 70.6l3.5 142.4c0 0-5.2 93.3 11.6 126.2h24.3l12.1-134.8 1.5-90.4 52.2 76.3-33.2 146.7 29.9 2.7 53.9-159.2-66.5-154.5z"/><path class="d" d="m498.7 204.4c18.6-16.8 46.3-25.2 69.5-15.8-5.9 3.3-11.5 7.1-16.7 11.3-5.2 4.3-10.1 9-14.5 14.1-4.4 5.1-8.4 10.6-11.9 16.4-3.4 5.7-6.4 11.8-8.8 18.1-3.7 9.9-6.7 21.2-15.8 26.5-5.7 3.2-12.7 3.4-19.1 1.8-6.3-1.6-12.1-4.7-17.9-7.9h-1.6c7.3-24 18.2-47.7 36.8-64.5z"/><path class="e" d="m568.1 189.1q-7.7 1-15.1 3.2-7.4 2.1-14.4 5.5-7 3.3-13.4 7.6-6.4 4.4-12 9.6-1.2 1.2-2.4 2.4-1.1 1.2-2.2 2.5-1 1.3-2 2.7-0.9 1.4-1.7 2.8-0.8 1.5-1.4 3-0.5 1.5-0.9 3.1-0.4 1.6-0.5 3.2-0.1 1.6-0.1 3.2c0.1 4.1 0.7 8.2-0.2 12.2q-0.3 1.6-1 3-0.7 1.4-1.7 2.7-0.9 1.2-2.1 2.3-1.2 1-2.6 1.7c-4.5 2.6-9.8 3.5-14.9 4.1-5.7 0.7-11.6 1.3-16.5 4.5-0.6 0.4-1.2-0.5-0.6-0.9 8.6-5.6 19.4-3.6 28.6-7.3 4.3-1.7 8.1-4.7 9.5-9.3 1.2-4 0.6-8.3 0.4-12.4q0-1.6 0.1-3.2 0.1-1.6 0.3-3.1 0.3-1.6 0.8-3.1 0.5-1.5 1.1-3 0.8-1.4 1.7-2.9 0.9-1.4 1.9-2.7 0.9-1.4 2.1-2.6 1.1-1.3 2.3-2.4 2.6-2.7 5.5-5.1 2.9-2.4 5.9-4.6 3.1-2.2 6.3-4.1 3.2-2 6.6-3.6 3.8-2 7.8-3.6 4-1.6 8.1-2.9 4.1-1.2 8.3-2.1 4.1-0.9 8.4-1.5c0.7-0.1 0.7 1 0 1.1z"/><path class="e" d="m517.8 210.2c-1-1.4-1.8-3-2.2-4.7-0.5-1.7-0.6-3.4-0.5-5.2 0.2-1.7 0.6-3.4 1.3-5 0.8-1.6 1.8-3 3-4.2 0.5-0.5 1.3 0.2 0.8 0.7-1.1 1.2-2.1 2.5-2.8 4-0.6 1.5-1.1 3-1.2 4.7-0.1 1.6 0 3.2 0.5 4.8 0.4 1.5 1.1 3 2 4.3 0.5 0.6-0.5 1.2-0.9 0.6z"/><path class="e" d="m501.7 235.9q2.6 0.4 5.3 0.4 2.7 0 5.3-0.5 2.6-0.6 5.1-1.6 2.5-1 4.7-2.4c0.6-0.4 1.2 0.6 0.6 0.9q-2.4 1.5-4.9 2.6-2.6 1-5.3 1.6-2.8 0.5-5.5 0.5-2.8 0-5.6-0.4c-0.7-0.2-0.4-1.2 0.3-1.1z"/><path class="e" d="m545.8 194.3q0.4 1 1.1 1.8 0.6 0.8 1.4 1.5 0.8 0.6 1.8 1 0.9 0.5 2 0.6c0.7 0.2 0.4 1.2-0.3 1.1q-1.1-0.2-2.2-0.7-1-0.4-1.9-1.1-1-0.7-1.7-1.6-0.7-0.9-1.2-2 0-0.1 0-0.2 0-0.1 0-0.2 0-0.1 0.1-0.2 0-0.1 0.1-0.2 0.1 0 0.2 0 0.2 0 0.3 0 0.1 0 0.2 0.1 0 0 0.1 0.1z"/><path class="d" d="m593.8 269.5q-0.6-0.1-1.3-0.2-2.2-0.3-4.5-0.5-2.2-0.2-4.4-0.3-2.3-0.1-4.5-0.1-2.3 0-4.5 0-0.7 0-1.4 0.1-5.4 0.2-10.7 0.9-5.4 0.7-10.6 1.9-5.3 1.2-10.4 2.9-5.1 1.7-10 3.9-2 0.8-3.9 1.8-2 0.9-3.9 1.9-1.9 1-3.7 2.1-1.9 1.1-3.7 2.2c-6.7 4.3-13.6 9.4-21.1 11.1q-0.3 0.1-0.6 0.1-0.3 0.1-0.6 0.2-0.2 0-0.5 0.1-0.3 0-0.6 0l-30.9-26.7q-0.1-0.2-0.2-0.3l-1.2-1q0.3-0.3 0.7-0.5 0.2-0.2 0.4-0.3 0.2-0.1 0.3-0.2 0-0.1 0.1-0.1 0.1-0.1 0.2-0.2 2.1-1.5 4.2-2.9 0 0 0.1 0 4-2.9 8.2-5.4 4.2-2.6 8.5-5 4.3-2.3 8.8-4.4 4.5-2 9.1-3.8 0.5-0.2 1.1-0.4 2-0.8 4.1-1.5 2.1-0.7 4.3-1.3 2.1-0.6 4.2-1.1 2.2-0.5 4.3-0.9 1.2-0.2 2.4-0.4 1.2-0.2 2.4-0.4 1.2-0.2 2.4-0.3 1.2-0.1 2.4-0.2 3.1-0.3 6.2-0.3 3.1-0.1 6.2 0.2 3.1 0.2 6.2 0.6 3.1 0.5 6.1 1.2c16.1 3.8 30.9 12.6 39.7 26.4q0.3 0.6 0.6 1.1z"/><path class="e" d="m593.4 269.8q-6.7-3.8-13.9-6.5-7.3-2.7-14.8-4.3-7.6-1.6-15.3-2-7.8-0.3-15.4 0.5-1.7 0.1-3.4 0.4-1.6 0.3-3.2 0.7-1.7 0.4-3.2 1-1.6 0.5-3.2 1.1-1.4 0.7-2.8 1.6-1.4 0.9-2.6 1.9-1.2 1.1-2.3 2.3-1.1 1.2-2 2.5c-2.4 3.3-4.4 7-7.6 9.7q-1.2 1-2.6 1.7-1.4 0.7-2.9 1.2-1.5 0.4-3.1 0.5-1.6 0.1-3.1-0.2c-5.2-0.6-9.9-3.1-14.4-5.7-4.9-2.9-10-5.9-15.9-6.3-0.7-0.1-0.6-1.2 0.1-1.1 10.2 0.7 17.7 8.8 27.3 11.4 4.4 1.2 9.3 1.1 13.1-1.8 3.4-2.4 5.5-6.2 7.9-9.6q0.8-1.3 1.9-2.5 1-1.2 2.2-2.3 1.1-1 2.4-2 1.3-0.9 2.7-1.6 1.5-0.8 3.1-1.4 1.5-0.6 3.1-1.1 1.6-0.4 3.3-0.8 1.6-0.3 3.3-0.5 3.7-0.5 7.4-0.7 3.8-0.2 7.5-0.1 3.8 0.1 7.5 0.5 3.8 0.4 7.5 1.1 4.2 0.7 8.3 1.8 4.2 1.1 8.2 2.6 4 1.4 7.9 3.2 3.9 1.8 7.7 4c0.6 0.3-0.1 1.2-0.7 0.8z"/><path class="e" d="m540.6 256.4c0-1.8 0.4-3.5 1-5.1 0.6-1.6 1.6-3.1 2.7-4.4 1.2-1.3 2.6-2.4 4.1-3.2 1.6-0.8 3.2-1.4 5-1.6 0.7-0.1 0.8 1 0.1 1.1-1.6 0.2-3.1 0.7-4.6 1.5-1.4 0.7-2.7 1.7-3.8 2.9-1 1.3-1.9 2.7-2.5 4.2-0.6 1.5-0.9 3.1-1 4.7 0 0.7-1.1 0.6-1-0.1z"/><path class="e" d="m512.2 267.2q1.9 2 4 3.5 2.2 1.6 4.6 2.8 2.4 1.1 4.9 1.8 2.6 0.7 5.3 0.9c0.7 0.1 0.6 1.2-0.1 1.1q-2.8-0.2-5.5-0.9-2.7-0.7-5.2-1.9-2.5-1.3-4.7-2.9-2.2-1.7-4.1-3.7c-0.5-0.5 0.4-1.2 0.8-0.7z"/><path class="e" d="m572.4 260.6q-0.2 1-0.2 2 0 1.1 0.3 2.1 0.3 1 0.8 1.9 0.5 0.9 1.2 1.7c0.5 0.5-0.4 1.2-0.9 0.7q-0.7-0.9-1.3-1.9-0.6-1-0.9-2.1-0.3-1.1-0.3-2.3 0-1.1 0.2-2.2 0.1-0.1 0.1-0.2 0.1-0.1 0.2-0.2 0-0.1 0.1-0.1 0.1 0 0.3 0 0.1 0 0.2 0 0.1 0.1 0.1 0.2 0.1 0.1 0.1 0.2 0.1 0.1 0 0.2z"/><path class="d" d="m51.3 627.1c-1.5 5.5-5.3 10-9.9 13.3q-1.1 0.8-2.3 1.5-0.3 0.2-0.7 0.4-0.4 0.3-0.8 0.5h-21.7q-0.5-1.2-1.1-2.4c-9.3-19.5-15.8-40.5-14.7-61.9q0.2-3.1 0.6-6.2 0.4-3.1 1.1-6.1 0.6-3.1 1.5-6.1 0.9-2.9 2-5.9c5.9-15.4 16.8-28.8 31.7-35.6q0.5-0.2 1.1-0.5-0.2 0.7-0.3 1.3-0.6 2.2-1.1 4.4-0.6 2.2-1 4.4-0.4 2.2-0.7 4.4-0.4 2.2-0.6 4.4-0.1 0.7-0.2 1.4-0.5 5.4-0.5 10.8-0.1 5.4 0.4 10.7 0.5 5.4 1.4 10.7 1 5.3 2.5 10.5 0 0 0 0.1 1.3 4.6 2.9 9.1 1.4 3.5 2.9 6.9c4.4 9.6 10.2 19.8 7.5 29.9z"/><path class="e" d="m38.4 518.6q-0.3 0.4-0.6 0.8-1.7 2.2-3.2 4.5-1.5 2.2-2.9 4.6-1.4 2.3-2.7 4.8-1.2 2.4-2.4 4.9-0.2 0.5-0.4 1-1.5 3.5-2.8 7-1.3 3.6-2.2 7.3-1 3.7-1.7 7.4-0.7 3.7-1.1 7.5 0 0.1 0 0.1 0 0 0 0 0 0.1 0 0.1 0 0 0 0-0.4 3.6-0.5 7.2-0.1 1.6 0 3.3 0 1.7 0.2 3.3 0.2 1.7 0.5 3.3 0.3 1.7 0.7 3.3 0.4 1.3 1 2.6 0.5 1.2 1.2 2.4 0.7 1.2 1.5 2.3 0.8 1.1 1.8 2.1 0.4 0.4 0.8 0.8 0.3 0.3 0.6 0.6c2 2 4.2 3.8 6.1 5.8q0.3 0.4 0.7 0.7 0.3 0.4 0.6 0.8 0.3 0.3 0.5 0.7 0.3 0.4 0.6 0.8 0.8 1.4 1.3 2.9 0.6 1.4 0.8 3 0.2 1.6 0.1 3.1-0.2 1.6-0.6 3.1c-1.4 5.1-4.5 9.4-7.7 13.4-1.6 2.1-3.2 4.1-4.6 6.3q-0.8 1.2-1.5 2.4h-1.2q0.6-1.2 1.4-2.4c3.6-5.7 8.8-10.7 11.5-17 1.8-4.3 2.4-9.1 0.1-13.3q-0.3-0.5-0.6-0.9-0.3-0.5-0.6-0.9-0.3-0.4-0.6-0.8-0.3-0.4-0.7-0.8c-1.8-2.1-4-3.8-6-5.7q-0.7-0.7-1.4-1.5-1-0.9-1.8-1.9-0.8-1.1-1.5-2.2-0.8-1.1-1.3-2.3-0.6-1.2-1.1-2.5-0.5-1.5-0.9-3.2-0.4-1.6-0.6-3.2-0.3-1.7-0.4-3.4-0.1-1.6 0-3.3 0-4.3 0.4-8.5 0.1-0.6 0.1-1.1 0.8-6.7 2.4-13.2 1.7-6.5 4.2-12.8 2.4-6.2 5.7-12 3.3-5.9 7.4-11.3 0.3-0.4 0.6-0.8c0.4-0.5 1.2 0.2 0.8 0.8z"/><path class="e" d="m17.7 569.1c-1.7-0.3-3.4-0.9-4.9-1.8-1.5-0.8-2.8-2-4-3.3-1.1-1.3-2-2.8-2.5-4.5-0.6-1.6-0.9-3.3-0.9-5.1q0-0.2 0.1-0.4 0.2-0.1 0.4-0.1 0.2 0 0.4 0.1 0.2 0.2 0.2 0.4c0 1.6 0.2 3.2 0.8 4.7 0.5 1.6 1.4 3 2.4 4.2 1.1 1.3 2.3 2.3 3.7 3.1 1.4 0.8 3 1.3 4.6 1.6 0.7 0.1 0.4 1.2-0.3 1.1z"/><path class="e" d="m24.5 598.6q2.2-1.5 4.1-3.4 1.8-1.9 3.3-4.1 1.5-2.3 2.5-4.7 1.1-2.5 1.6-5.1c0.2-0.7 1.3-0.4 1.1 0.3q-0.6 2.7-1.7 5.2-1.1 2.6-2.6 4.9-1.5 2.3-3.5 4.3-1.9 2-4.2 3.6c-0.6 0.4-1.2-0.6-0.6-1z"/><path class="e" d="m26.3 538.1q1 0.3 2 0.5 1 0.1 2.1 0 1-0.1 2-0.5 1-0.4 1.8-1c0.6-0.4 1.1 0.5 0.6 0.9q-1 0.7-2 1.1-1.1 0.4-2.3 0.6-1.1 0.1-2.2 0-1.2-0.2-2.3-0.6-0.1 0-0.1-0.1-0.1 0-0.2-0.1 0-0.1-0.1-0.2 0-0.1 0-0.2 0.1-0.1 0.1-0.2 0.1-0.1 0.2-0.2 0.1 0 0.2 0 0.1-0.1 0.2 0z"/><path class="d" d="m113.4 557.3q-0.5 0.4-1 0.8-1.8 1.3-3.5 2.8-1.8 1.4-3.4 2.9-1.7 1.5-3.3 3.1-1.6 1.6-3.1 3.2-0.5 0.5-1 1-3.6 4-6.9 8.2-3.2 4.3-6.1 8.8-2.8 4.6-5.3 9.4-2.4 4.8-4.4 9.7v0.1q0 0.1 0 0.1-0.8 2-1.5 4-0.7 2.1-1.3 4.1-0.7 2.1-1.2 4.2-0.6 2-1 4.1c-1.3 5.5-2.3 11.3-4.2 16.6q-0.4 1.2-0.9 2.4h-44.5q0.2-1.2 0.5-2.4 0.8-4.3 1.9-8.6 1.1-4.3 2.4-8.5 1.3-4.3 2.9-8.4 1.5-4.1 3.3-8.2 0.3-0.5 0.5-1.1 0.9-2 1.9-3.9 1-2 2.1-3.9 1.1-1.9 2.2-3.8 1.2-1.9 2.4-3.7 0 0 0 0 0 0 0 0 0 0 0 0 0 0 0 0 0.7-1 1.4-2 0.7-1 1.4-2 0.8-0.9 1.5-1.9 0.8-0.9 1.5-1.8 2-2.4 4.2-4.6 2.2-2.2 4.6-4.3 2.3-2 4.8-3.9 2.5-1.8 5.2-3.5 0 0 0.1 0c14-8.8 30.7-12.9 46.6-9.3q0.6 0.1 1.2 0.3z"/><path class="e" d="m113.4 557.8q-0.5 0.1-1 0.3-2.7 0.7-5.3 1.6-2.5 0.9-5.1 2-2.5 1-5 2.2-2.4 1.1-4.8 2.5-0.5 0.2-1 0.5-3.3 1.8-6.4 3.9-3.2 2.1-6.2 4.5-3 2.3-5.8 4.9-2.8 2.5-5.4 5.3 0 0 0 0 0 0 0 0 0 0 0 0 0 0 0 0-0.1 0.1-0.2 0.2-2.4 2.6-4.6 5.4-1.1 1.3-2.1 2.6-0.9 1.4-1.8 2.8-0.8 1.5-1.6 3-0.7 1.5-1.3 3-0.5 1.3-0.8 2.7-0.4 1.3-0.5 2.7-0.2 1.3-0.2 2.7 0 1.4 0.2 2.7 0 0.6 0.1 1.1 0 0.5 0.1 0.9c0.7 4 1.8 8 1.5 12.1q-0.2 1.6-0.6 3.1-0.5 1.5-1.3 2.9-0.8 1.4-1.8 2.5-1 1.2-2.3 2.2-0.4 0.3-0.9 0.6-0.4 0.3-0.9 0.6-0.5 0.3-0.9 0.6-0.5 0.3-1 0.5-0.7 0.4-1.4 0.7-0.7 0.3-1.4 0.6-0.8 0.3-1.5 0.6-0.7 0.3-1.5 0.5h-3.9q0.8-0.2 1.6-0.5 0.7-0.2 1.4-0.4 0.7-0.2 1.4-0.4 0.7-0.3 1.4-0.5 0.6-0.3 1.3-0.6 0.4-0.2 0.8-0.3 0.4-0.2 0.7-0.4 0.4-0.2 0.8-0.4 0.4-0.2 0.7-0.4c4-2.3 7.4-5.8 8.1-10.6 0.6-4.1-0.6-8.2-1.3-12.3q-0.2-1-0.3-2.1-0.2-1.3-0.2-2.6 0-1.3 0.1-2.6 0.1-1.4 0.3-2.7 0.3-1.3 0.7-2.5 0.5-1.6 1.2-3.1 0.7-1.6 1.5-3 0.8-1.5 1.7-2.9 0.9-1.4 1.9-2.7 0.7-0.8 1.3-1.7 0.7-0.8 1.4-1.6 0.7-0.8 1.4-1.6 0.7-0.9 1.4-1.6 0.4-0.4 0.8-0.8 2.6-2.8 5.5-5.4 2.8-2.6 5.9-4.9 3-2.4 6.2-4.5 3.2-2.1 6.6-4 2.5-1.4 5.1-2.6 2.5-1.3 5.2-2.4 2.6-1 5.3-2 2.7-0.9 5.5-1.7 0.5-0.2 1-0.3c0.7-0.2 0.8 0.9 0.2 1.1z"/><path class="e" d="m66.5 585.6c-1.2-1.2-2.2-2.7-2.9-4.3-0.7-1.6-1.1-3.3-1.2-5-0.1-1.8 0.2-3.5 0.7-5.2 0.5-1.7 1.3-3.2 2.3-4.6 0.5-0.6 1.4 0.1 0.9 0.6-1 1.3-1.7 2.8-2.2 4.3-0.5 1.6-0.7 3.2-0.6 4.8 0.1 1.7 0.5 3.2 1.2 4.7 0.6 1.5 1.5 2.9 2.6 4.1 0.5 0.5-0.3 1.2-0.8 0.6z"/><path class="e" d="m54.1 613.3q2.7 0.1 5.3-0.3 2.7-0.4 5.2-1.3 2.5-0.8 4.8-2.2 2.3-1.3 4.3-3c0.6-0.5 1.3 0.4 0.7 0.8q-2.1 1.8-4.5 3.2-2.4 1.4-5 2.3-2.6 0.9-5.4 1.3-2.7 0.4-5.5 0.3c-0.7 0-0.6-1.1 0.1-1.1z"/><path class="e" d="m92 566.1q0.5 0.9 1.3 1.6 0.7 0.7 1.6 1.2 0.9 0.5 1.9 0.8 1 0.3 2.1 0.3c0.7 0.1 0.6 1.2-0.1 1.1q-1.2 0-2.3-0.3-1.1-0.3-2.1-0.9-1-0.6-1.8-1.4-0.9-0.8-1.5-1.7 0-0.1-0.1-0.2 0-0.1 0-0.2 0-0.2 0.1-0.2 0-0.1 0.1-0.2 0.1-0.1 0.2-0.1 0.1 0 0.2 0 0.1 0 0.2 0 0.1 0.1 0.2 0.2z"/><path class="f" d="m456.4 173.1c-1 1.4-2.4 2.5-3.9 3.3-1.5 0.8-3.1 1.2-4.8 1.3-1.7 0.1-3.4-0.2-5-0.9-1.5-0.6-2.9-1.6-4.1-2.8l-37.8 16.4 3.7-21.1 35.3-12.4c2.3-1.8 5.1-2.7 7.9-2.5 2.9 0.1 5.6 1.3 7.6 3.3 2 2 3.3 4.6 3.5 7.5 0.2 2.8-0.7 5.7-2.4 7.9z"/><path class="d" d="m431.2 179.7l-87.8 39.1h-0.2l-100.1-35.7c-3.7-1.9-7-4.5-9.7-7.7-2.7-3.2-4.8-6.8-6.2-10.7-1.3-4-1.9-8.1-1.8-12.3 0.2-4.2 1.2-8.3 2.9-12.1 1.9-4.2 4.7-8 8.2-11.1 3.5-3 7.6-5.3 12-6.7 4.5-1.4 9.2-1.8 13.8-1.3 4.6 0.6 9 2.1 13 4.5l74.5 44.9 72.2-9.4z"/><path class="g" d="m862.7 643.6q0 0.2-0.1 0.5-0.1 0.2-0.2 0.3-0.2 0.2-0.4 0.3-0.2 0.1-0.5 0.1h-860.3c-0.3 0-0.6-0.1-0.8-0.4-0.2-0.2-0.4-0.5-0.4-0.8 0-0.3 0.2-0.6 0.4-0.8 0.2-0.3 0.5-0.4 0.8-0.4h860.3q0.3 0 0.5 0.1 0.2 0.1 0.4 0.3 0.1 0.1 0.2 0.3 0.1 0.3 0.1 0.5z"/><path class="d" d="m313.3 296.8l-88.5-14.2c-2.3-0.7-4.4-1.9-6.2-3.6-1.8-1.6-3.2-3.6-4.2-5.9-0.9-2.2-1.4-4.7-1.3-7.1 0.1-2.4 0.7-4.8 1.8-7l4-8-1.6-84.4c-0.1-5.4 0.6-10.9 1.9-16.2 1.3-5.3 3.3-10.4 6-15.2 2.6-4.8 5.9-9.2 9.7-13.1 3.8-3.9 8.1-7.3 12.8-10.1l8.6-5.2 4.4-11.1 40.2 1 0.1 14.5 14.4 23v0.1l-0.9 125-4 12.9 6 15z"/><path fill-rule="evenodd" class="f" d="m284.5 82c-20.2 0-36.6-16.4-36.6-36.6 0-20.2 16.4-36.5 36.6-36.5 20.2 0 36.5 16.3 36.5 36.5 0 20.2-16.3 36.6-36.5 36.6z"/><path class="b" d="m246.4 53.4c-1.1-4.6-0.6-11.1 0-15.7 1.6-12.1 8.4-23.6 18.6-30.5q0.7-0.5 1.5-1 0.8-0.4 1.7-0.8 0.8-0.3 1.7-0.5 0.9-0.2 1.8-0.3c2.4-0.1 5 1.2 5.8 3.5q0.4-1.2 1.1-2.2 0.7-1 1.5-1.9 0.9-0.8 1.9-1.5 1.1-0.7 2.2-1.1 1.2-0.5 2.4-0.8 1.1-0.3 2.4-0.4 1.2-0.2 2.4-0.2 1.2 0 2.5 0.1c3.1 0.2 6.2 0.9 9.2 2 2.9 1.1 5.8 2.6 8.3 4.4 2.6 1.9 4.9 4 6.9 6.5 2 2.4 3.6 5.2 4.9 8.1 1 2.3 3.7-6.3 5-4.1q0.4 0.9 1 1.6 0.5 0.8 1.2 1.4 0.7 0.6 1.6 1.1 0.8 0.5 1.7 0.8c2.4 0.6 3.4 10.6 4.3 8.3 0.8 1.7 1.1 3.6 0.9 5.5-0.2 1.8-0.8 3.6-1.9 5.2-1.1 1.5-2.5 2.7-4.2 3.6-1.6 0.8-3.5 1.2-5.4 1.2-2.4-0.1-4.8-1-7.2-1.4-8.7-1.4-18 4.9-19.9 13.5q-0.2-0.9-0.5-1.8-0.4-0.9-0.8-1.8-0.3-0.9-0.8-1.7-0.5-0.9-1-1.7-0.6-0.8-1.3-1.4-0.7-0.7-1.5-1.2-0.9-0.4-1.8-0.7-1-0.2-1.9-0.3c-2.5 0.1-4.7 1.7-6.3 3.6-1.6 1.9-2.8 4.1-4.4 6-4.8 5.5-11.2 18.4-18 17.4-5.3-0.7-14.1-14.6-15.6-20.8z"/><path class="e" d="m505.4 214.5q0.2-1.2-0.1-2.4-0.2-1.3-0.9-2.4-0.7-1-1.7-1.8-0.9-0.8-2.1-1.2l-98.5-32.8q-0.3-0.1-0.7-0.2-0.3-0.1-0.7-0.1-0.4-0.1-0.7-0.1-0.4 0-0.8 0.1l-24.7 2.3-14.1 1.3-26.1 2.5q-1.2 0.1-2.3 0.6-1.1 0.5-1.9 1.3-0.9 0.8-1.5 1.9-0.5 1-0.7 2.2l-13.3 82.8q-0.2 1.3 0.1 2.5 0.2 1.2 0.8 2.2 0.6 1.1 1.5 1.9 1 0.8 2.1 1.2l99.5 38.4q0.1 0.1 0.3 0.2 0.2 0 0.4 0.1 0.1 0 0.3 0 0.2 0.1 0.4 0.1 0.3 0.1 0.5 0.1 0.3 0 0.6 0 0.3 0 0.5 0 0.3 0 0.6-0.1l64.2-9.5q1.2-0.2 2.2-0.7 1-0.5 1.8-1.3 0.8-0.8 1.4-1.8 0.5-1.1 0.7-2.2z"/><path class="h" d="m321.4 270.5l99.4 38.4q0.1 0 0.1 0 0.1 0 0.1 0 0.1 0 0.1 0 0.1 0 0.2 0l64.2-9.5q0.2 0 0.3-0.1 0.1 0 0.2-0.1 0.1-0.1 0.2-0.3 0-0.1 0.1-0.2l12.9-85.1q0-0.2 0-0.3-0.1-0.2-0.1-0.3-0.1-0.1-0.2-0.2-0.2-0.1-0.3-0.2l-0.7-0.2-97.7-32.6q-0.1 0-0.1 0 0 0 0 0 0 0 0 0-0.1 0-0.1 0 0 0 0 0-0.1 0-0.1 0 0 0 0 0-0.1 0-0.1 0l-60.2 5.7-4.7 0.4q-0.2 0.1-0.3 0.1-0.2 0.1-0.3 0.2-0.1 0.1-0.1 0.2-0.1 0.1-0.1 0.3l-13.3 82.8q0 0.2 0 0.3 0 0.2 0.1 0.3 0.1 0.1 0.2 0.2 0.1 0.1 0.3 0.2z"/><path class="b" d="m339.6 185.5l60.2-5.7q0 0 0.1 0 0 0 0 0 0 0 0.1 0 0 0 0 0 0 0 0.1 0 0 0 0 0 0 0 0 0 0 0 0.1 0l97.7 32.6-25.8 2.7-9.6 1-27.5 2.9q0 0 0 0-0.1 0-0.1 0 0 0-0.1 0 0 0 0 0-0.1 0-0.2 0z"/><path class="i" d="m319.1 276.3l99.4 38.4q0.2 0.1 0.4 0.2 0.2 0 0.4 0.1 0.1 0 0.3 0 0.2 0.1 0.4 0.1 0.3 0.1 0.5 0.1 0.3 0 0.6 0 0.3 0 0.5 0 0.3 0 0.6-0.1l64.2-9.5q1.2-0.2 2.2-0.7 1-0.5 1.8-1.3 0.8-0.8 1.4-1.8 0.5-1.1 0.7-2.2l12.9-85.1q0-0.4 0-0.9 0.1-0.5 0-0.9-0.1-0.5-0.2-1-0.1-0.4-0.3-0.9-0.1-0.2-0.2-0.4-0.2-0.4-0.4-0.8-0.2-0.4-0.5-0.7-0.3-0.4-0.6-0.7-0.4-0.3-0.7-0.5-0.2-0.2-0.5-0.3-0.2-0.2-0.4-0.3-0.3-0.1-0.5-0.2-0.3-0.1-0.5-0.2l-0.2-0.1-98.3-32.7q-0.1 0-0.3-0.1-0.1 0-0.3-0.1-0.1 0-0.3 0-0.1-0.1-0.3-0.1-0.2 0-0.4 0-0.2-0.1-0.4-0.1-0.2 0-0.5 0-0.2 0.1-0.4 0.1l-24.7 2.3-14.1 1.4-26.1 2.4q-0.4 0.1-0.8 0.1-0.4 0.1-0.8 0.2-0.4 0.2-0.7 0.3-0.4 0.2-0.7 0.4-0.1 0-0.1 0 0 0.1-0.1 0.1 0 0 0 0 0 0-0.1 0 0 0 0 0.1 0 0 0 0 0 0-0.1 0 0 0 0 0-0.6 0.4-1.1 1-0.5 0.5-0.9 1.1-0.4 0.6-0.6 1.3-0.3 0.7-0.4 1.4l-13.3 82.8q-0.2 1.3 0.1 2.5 0.2 1.2 0.8 2.2 0.6 1.1 1.5 1.9 1 0.8 2.1 1.2zm10.6-90.3q0-0.4 0.1-0.7 0.1-0.4 0.3-0.7 0.2-0.4 0.4-0.7 0.2-0.3 0.4-0.6 0.1-0.1 0.2-0.2 0.1 0 0.1-0.1 0.1-0.1 0.2-0.2 0.1-0.1 0.2-0.1 0.2-0.2 0.5-0.4 0.3-0.2 0.6-0.3 0.3-0.2 0.6-0.3 0.3-0.1 0.6-0.1 0.1 0 0.1 0 0.1-0.1 0.2-0.1 0 0 0.1 0 0.1 0 0.1 0l44-4.2 21-1.9q0.2-0.1 0.4-0.1 0.1 0 0.2 0 0.1 0 0.3 0 0.1 0.1 0.2 0.1 0.1 0 0.2 0 0.1 0 0.2 0 0.2 0.1 0.3 0.1 0.1 0 0.2 0 0.1 0.1 0.2 0.1l98.4 32.8q0.1 0 0.2 0.1 0.3 0.1 0.7 0.3 0.3 0.1 0.6 0.3 0.2 0.2 0.5 0.5 0.3 0.2 0.5 0.5 0.3 0.4 0.6 0.9 0.2 0.5 0.4 1.1 0.1 0.5 0.2 1.1 0 0.5-0.1 1.1l-12.9 85q-0.1 0.9-0.5 1.7-0.4 0.7-1 1.3-0.6 0.6-1.4 1-0.8 0.4-1.6 0.5l-64.3 9.6q-0.3 0-0.7 0-0.3 0-0.7 0-0.3-0.1-0.6-0.1-0.4-0.1-0.7-0.2l-99.4-38.4q-0.9-0.4-1.6-1-0.7-0.6-1.2-1.4-0.4-0.8-0.6-1.7-0.1-0.9 0-1.8z"/><path class="i" d="m330.7 181.4q0-0.1 0.1-0.1 0-0.1 0-0.1 0-0.1 0.1-0.1 0-0.1 0.1-0.1 0 0 0 0 0 0 0 0 0.1-0.1 0.1-0.1 0 0 0 0 0.1 0 0.1 0 0.1-0.1 0.2-0.1 0.1 0 0.1 0 0.1 0 0.2 0 0.1 0 0.2 0l2 0.8 101.1 35.6 23.7-2.5 13.2-1.4 28.1-2.9 2.5-0.3h0.5q0.1-0.1 0.3 0 0.1 0 0.3 0.1 0.1 0.1 0.2 0.2 0.1 0.2 0.1 0.3 0 0 0 0.1 0 0 0 0 0 0 0 0 0 0 0 0.1 0.1 0.1 0 0.2 0 0.2-0.1 0.3 0 0.1-0.2 0.2-0.1 0.1-0.2 0.2 0 0-0.1 0 0 0 0 0-0.1 0-0.1 0 0 0-0.1 0l-3.4 0.4-27.6 2.9-9.6 1-27.5 2.9q0 0 0 0-0.1 0-0.1 0 0 0-0.1 0 0 0 0 0-0.1 0-0.2 0l-103-36.3-0.4-0.2q0 0 0 0 0 0-0.1 0 0 0 0 0 0-0.1-0.1-0.1-0.1-0.1-0.2-0.2-0.1-0.1-0.1-0.2 0-0.2 0-0.3 0-0.2 0-0.3z"/><path class="i" d="m420.3 315.4q-0.2-0.1-0.4-0.2-0.1 0-0.2-0.2-0.1-0.1-0.2-0.3 0-0.2 0-0.3l14.5-96.4q0.1-0.2 0.2-0.3 0.1-0.2 0.2-0.3 0.1-0.1 0.3-0.1 0.2-0.1 0.4 0 0.1 0 0.3 0.1 0.1 0.1 0.3 0.2 0.1 0.2 0.1 0.3 0 0.2 0 0.4l-14.5 96.3q0 0.2-0.1 0.3-0.1 0.2-0.3 0.3-0.1 0.1-0.3 0.2-0.1 0-0.3 0z"/><path class="i" d="m457.1 309.3l-9.7 1 11.3-95.6c0 0 12.9-2.3 13.2-1.4 0.3 0.6-14.7 95.3-14.8 96z"/><path fill-rule="evenodd" class="i" d="m331.3 182.5l-0.3 43.6 77.1 29.4 27.7-37.2-104.6-35.8z"/><path class="i" d="m502.5 210.1q-0.3-0.3-0.5-0.5-0.3-0.3-0.6-0.5-0.4-0.3-0.7-0.4-0.3-0.2-0.7-0.3l-98.4-32.8q-0.1 0-0.2-0.1-0.1 0-0.2 0-0.1 0-0.3-0.1-0.1 0-0.2 0-0.1 0-0.2 0-0.1-0.1-0.2-0.1-0.2 0-0.3 0-0.1 0-0.2 0l0.1-1 1-0.7 23.4-16.9 78 23.9 0.2 27.1z"/><path class="e" d="m335.2 252.5q0 0 0.1 0 0 0 0 0 0.1 0 0.1 0 0.1 0 0.1 0l30.2 10c0.4 0.1 0.7 0.4 0.9 0.7 0.2 0.4 0.2 0.8 0.1 1.2-0.2 0.3-0.4 0.6-0.8 0.8-0.3 0.2-0.8 0.2-1.1 0.1l-30.2-9.9c-0.4-0.1-0.7-0.4-0.9-0.7-0.1-0.3-0.2-0.7-0.1-1 0-0.4 0.3-0.7 0.5-0.9 0.3-0.3 0.7-0.4 1.1-0.3z"/><path fill-rule="evenodd" class="j" d="m457 435.2c-6.6 0-12-5.3-12-12 0-6.6 5.4-12 12-12 6.6 0 12 5.4 12 12 0 6.7-5.4 12-12 12z"/><path fill-rule="evenodd" class="j" d="m151 479.2c-6.6 0-12-5.3-12-12 0-6.6 5.4-12 12-12 6.6 0 12 5.4 12 12 0 6.7-5.4 12-12 12z"/><path fill-rule="evenodd" class="j" d="m401 82.2c-6.6 0-12-5.3-12-12 0-6.6 5.4-12 12-12 6.6 0 12 5.4 12 12 0 6.7-5.4 12-12 12z"/><path class="f" d="m420.7 270.1c-1.6 0.7-3.2 1-4.9 1-1.7-0.1-3.4-0.5-4.9-1.2-1.5-0.8-2.9-1.9-3.9-3.2-1.1-1.3-1.8-2.9-2.2-4.5l-41-4.2 13.5-16.6 36.9 6.5c2.8-0.5 5.7 0.1 8.1 1.6 2.4 1.5 4.2 3.9 5 6.6 0.8 2.8 0.6 5.7-0.6 8.3-1.3 2.6-3.4 4.6-6 5.7z"/><path class="d" d="m395.5 263.5l-95.7-8.8-0.2-0.1-69.8-80.1c-2.3-3.5-3.9-7.4-4.7-11.4-0.9-4.1-0.9-8.3-0.2-12.4 0.8-4.1 2.3-8.1 4.5-11.6 2.2-3.5 5-6.6 8.4-9.1 3.7-2.8 8-4.7 12.6-5.7 4.5-1 9.2-1 13.8 0 4.5 1 8.8 2.9 12.5 5.6 3.8 2.8 6.9 6.3 9.2 10.3l43.1 75.6 67.5 27.1z"/><path class="b" d="m635.7 109.6c-2.4-17.4-5.4-36.1-17.7-48.7-3.9-4-8.5-7.2-13.7-9.3-5.1-2.2-10.7-3.2-16.3-3.2-5.6 0.1-11.1 1.3-16.2 3.5-5.1 2.3-9.7 5.5-13.5 9.6-9 9.5-12.9 23-13.3 36-0.3 13.1 2.6 26.1 5.8 38.7q6.4 0.2 12.8-0.4 6.4-0.5 12.6-1.8 6.3-1.2 12.4-3.1 6.1-1.9 12-4.5c3.9-1.7 7.8-3.6 11.9-4.6 4.2-1.1 7.1 1.6 11 3.4l2.1-4c1.7 3.2 7.1 2.2 9.1-0.9 1.9-3.1 1.5-7.1 1-10.7z"/><path class="a" d="m567.9 206.9l-69.9 1.5c-2.2-3.8-6.4-5.9-10.8-5.4-4.3 0.4-8 3.4-9.3 7.6-1.3 4.2-0.1 8.7 3.2 11.6 3.3 2.9 8 3.6 12 1.8 9.2 0.5 81.7 10.8 86.1 4.2 4.4-6.8 27.8-30.5 27.8-30.5l-18-25.7z"/><path fill-rule="evenodd" class="a" d="m584.9 126.9c-18.1 0-32.8-14.7-32.8-32.9 0-18.1 14.7-32.8 32.8-32.8 18.2 0 32.8 14.7 32.8 32.8 0 18.2-14.6 32.9-32.8 32.9z"/><path class="h" d=""/><path class="i" d="m637.5 157.2c-3.9-7.7-5.8-17.2-14-19.7-5.6-1.7-28.1 0.8-33.2 3.7-8.4 4.7-0.8 13.6-5.7 21.9-5.5 9-20.2 27.1-25.6 36.1-3.7 6.2 8.8 24.4 6.8 31.4-2 6.9-2.1 14.7 1.3 21.1 3.1 5.7-1.3 10.8 1.7 16.4 3.3 6 7.2 28.1 4.2 34.1l-2 6c19.9 1.2 36.5-22.5 56.3-25 4.9-0.6 9.9-1.4 14-4.3 5.9-4.2 8.3-11.8 9.8-18.9 1.7-8.6 2.7-17.4 3-26.2 0.3-8.8-0.1-17.6-1.2-26.3-1.2-8.8-3.1-17.4-5.6-25.8-2.6-8.4-5.9-16.6-9.8-24.5z"/><path class="a" d="m667.2 238.5c-2.7-7.5-7.7-40.5-7.7-40.5l-31.3-0.9 15.3 37.7-41.8 58.5q0 0 0.2 0.4c-4.5-0.7-9 1.4-11.3 5.3-2.3 3.9-1.9 8.9 0.9 12.4 2.8 3.6 7.5 5.1 11.9 3.8 4.3-1.4 7.4-5.2 7.8-9.8q0.1 0.1 0.2 0.1 0.1 0 0.3 0 0.1 0 0.2-0.1 0.1 0 0.2-0.1c4.7-5.9 57.9-59.2 55.1-66.8z"/><path class="i" d="m670.4 217.7c-2.8-12.2-5.7-24.4-10.6-35.9-4.8-11.4-11.8-22.3-21.5-30.1-3.2-2.4-6.6-4.6-10.6-5.4-3.9-0.8-8.3 0.1-11 3-4.4 4.6-3.1 12-1.5 18.2q7.2 27.3 14.3 54.6 20.6-2.2 41.2-4.4z"/><path class="b" d="m625.1 98.6c-1.2-8-2.4-16-5.3-23.4-2.8-7.5-7.4-14.5-14-18.8-10.4-6.7-23.8-5.4-35.5-1.5-9 3-17.8 7.5-24.2 14.8-6.3 7.3-9.9 17.7-7.5 27.2q18.6-4.4 37.3-8.8l-1.4 1q3.1 1.5 5.7 3.7 2.7 2.2 4.8 4.9 2 2.7 3.5 5.8 1.4 3.1 2.1 6.5 0.6 3.4 0.5 6.8-0.1 3.5-0.9 6.8-0.9 3.4-2.4 6.5-1.6 3-3.8 5.7 12.7-4.5 25.4-9c5.3-1.9 10.9-4 14-8.8 3.6-5.5 2.7-12.8 1.7-19.4z"/></svg>